<?xml version="1.0" encoding="UTF-8" standalone="no"?>
<!DOCTYPE svg PUBLIC "-//W3C//DTD SVG 1.1//EN"
 "http://www.w3.org/Graphics/SVG/1.1/DTD/svg11.dtd">
<!-- Generated by graphviz version 2.47.0 (20210316.0004)
 -->
<!-- Title: dependencies Pages: 1 -->
<svg width="688pt" height="211pt"
 viewBox="0.00 0.00 688.00 211.00" xmlns="http://www.w3.org/2000/svg" xmlns:xlink="http://www.w3.org/1999/xlink">
<g id="graph0" class="graph" transform="scale(1 1) rotate(0) translate(4 207)">
<title>dependencies</title>
<polygon fill="white" stroke="transparent" points="-4,4 -4,-207 684,-207 684,4 -4,4"/>
<text text-anchor="start" x="319.01" y="-42.4" font-family="Times-12" font-weight="bold" font-size="14.00">Legend</text>
<polygon fill="#ffffb3" stroke="transparent" points="106,-10 106,-30 126,-30 126,-10 106,-10"/>
<text text-anchor="start" x="129.63" y="-15.4" font-family="Times-12" font-size="14.00"> &#160;Declarations</text>
<polygon fill="#8dd3c7" stroke="transparent" points="219,-10 219,-30 239,-30 239,-10 219,-10"/>
<text text-anchor="start" x="242.73" y="-15.4" font-family="Times-12" font-size="14.00"> &#160;Module</text>
<polygon fill="#80b1d3" stroke="transparent" points="305,-10 305,-30 325,-30 325,-10 305,-10"/>
<text text-anchor="start" x="328.78" y="-15.4" font-family="Times-12" font-size="14.00"> &#160;Bootstrap</text>
<polygon fill="#fdb462" stroke="transparent" points="402,-10 402,-30 422,-30 422,-10 402,-10"/>
<text text-anchor="start" x="425.67" y="-15.4" font-family="Times-12" font-size="14.00"> &#160;Providers</text>
<polygon fill="#fb8072" stroke="transparent" points="498,-10 498,-30 518,-30 518,-10 498,-10"/>
<text text-anchor="start" x="521.73" y="-15.4" font-family="Times-12" font-size="14.00"> &#160;Exports</text>
<g id="clust1" class="cluster">
<title>cluster_AuthModule</title>
<polygon fill="none" stroke="black" stroke-dasharray="1,5" points="8,-70 8,-195 672,-195 672,-70 8,-70"/>
</g>
<g id="clust6" class="cluster">
<title>cluster_AuthModule_providers</title>
<polygon fill="none" stroke="black" points="250,-78 250,-130 664,-130 664,-78 250,-78"/>
</g>
<g id="clust3" class="cluster">
<title>cluster_AuthModule_imports</title>
<polygon fill="none" stroke="black" points="16,-78 16,-130 242,-130 242,-78 16,-78"/>
</g>
<!-- LoggerModule -->
<g id="node1" class="node">
<title>LoggerModule</title>
<polygon fill="#8dd3c7" stroke="black" points="233.98,-122 230.98,-126 209.98,-126 206.98,-122 134.02,-122 134.02,-86 233.98,-86 233.98,-122"/>
<text text-anchor="middle" x="184" y="-99.8" font-family="Times,serif" font-size="14.00">LoggerModule</text>
</g>
<!-- AuthModule -->
<g id="node3" class="node">
<title>AuthModule</title>
<polygon fill="#8dd3c7" stroke="black" points="366.55,-187 363.55,-191 342.55,-191 339.55,-187 279.45,-187 279.45,-151 366.55,-151 366.55,-187"/>
<text text-anchor="middle" x="323" y="-164.8" font-family="Times,serif" font-size="14.00">AuthModule</text>
</g>
<!-- LoggerModule&#45;&gt;AuthModule -->
<g id="edge1" class="edge">
<title>LoggerModule&#45;&gt;AuthModule</title>
<path fill="none" stroke="black" d="M184,-122.02C184,-139.37 184,-163 184,-163 184,-163 269.4,-163 269.4,-163"/>
<polygon fill="black" stroke="black" points="269.4,-166.5 279.4,-163 269.4,-159.5 269.4,-166.5"/>
</g>
<!-- UsersModule -->
<g id="node2" class="node">
<title>UsersModule</title>
<polygon fill="#8dd3c7" stroke="black" points="115.92,-122 112.92,-126 91.92,-126 88.92,-122 24.08,-122 24.08,-86 115.92,-86 115.92,-122"/>
<text text-anchor="middle" x="70" y="-99.8" font-family="Times,serif" font-size="14.00">UsersModule</text>
</g>
<!-- UsersModule&#45;&gt;AuthModule -->
<g id="edge2" class="edge">
<title>UsersModule&#45;&gt;AuthModule</title>
<path fill="none" stroke="black" d="M70,-122.28C70,-143.32 70,-175 70,-175 70,-175 269.22,-175 269.22,-175"/>
<polygon fill="black" stroke="black" points="269.22,-178.5 279.22,-175 269.22,-171.5 269.22,-178.5"/>
</g>
<!-- AuthService -->
<g id="node4" class="node">
<title>AuthService</title>
<ellipse fill="#fdb462" stroke="black" cx="597" cy="-104" rx="59.11" ry="18"/>
<text text-anchor="middle" x="597" y="-99.8" font-family="Times,serif" font-size="14.00">AuthService</text>
</g>
<!-- AuthService&#45;&gt;AuthModule -->
<g id="edge3" class="edge">
<title>AuthService&#45;&gt;AuthModule</title>
<path fill="none" stroke="black" d="M597,-122.28C597,-143.32 597,-175 597,-175 597,-175 376.72,-175 376.72,-175"/>
<polygon fill="black" stroke="black" points="376.72,-171.5 366.72,-175 376.72,-178.5 376.72,-171.5"/>
</g>
<!-- JwtStrategy -->
<g id="node5" class="node">
<title>JwtStrategy</title>
<ellipse fill="#fdb462" stroke="black" cx="463" cy="-104" rx="56.76" ry="18"/>
<text text-anchor="middle" x="463" y="-99.8" font-family="Times,serif" font-size="14.00">JwtStrategy</text>
</g>
<!-- JwtStrategy&#45;&gt;AuthModule -->
<g id="edge4" class="edge">
<title>JwtStrategy&#45;&gt;AuthModule</title>
<path fill="none" stroke="black" d="M463,-122.02C463,-139.37 463,-163 463,-163 463,-163 376.91,-163 376.91,-163"/>
<polygon fill="black" stroke="black" points="376.91,-159.5 366.91,-163 376.91,-166.5 376.91,-159.5"/>
</g>
<!-- LocalStrategy -->
<g id="node6" class="node">
<title>LocalStrategy</title>
<ellipse fill="#fdb462" stroke="black" cx="323" cy="-104" rx="65.41" ry="18"/>
<text text-anchor="middle" x="323" y="-99.8" font-family="Times,serif" font-size="14.00">LocalStrategy</text>
</g>
<!-- LocalStrategy&#45;&gt;AuthModule -->
<g id="edge5" class="edge">
<title>LocalStrategy&#45;&gt;AuthModule</title>
<path fill="none" stroke="black" d="M323,-122.11C323,-122.11 323,-140.99 323,-140.99"/>
<polygon fill="black" stroke="black" points="319.5,-140.99 323,-150.99 326.5,-140.99 319.5,-140.99"/>
</g>
</g>
</svg>
