<?xml version="1.0" encoding="UTF-8" standalone="no"?>
<!DOCTYPE svg PUBLIC "-//W3C//DTD SVG 1.1//EN"
 "http://www.w3.org/Graphics/SVG/1.1/DTD/svg11.dtd">
<!-- Generated by graphviz version 2.47.0 (20210316.0004)
 -->
<!-- Title: dependencies Pages: 1 -->
<svg width="504pt" height="211pt"
 viewBox="0.00 0.00 504.00 211.00" xmlns="http://www.w3.org/2000/svg" xmlns:xlink="http://www.w3.org/1999/xlink">
<g id="graph0" class="graph" transform="scale(1 1) rotate(0) translate(4 207)">
<title>dependencies</title>
<polygon fill="white" stroke="transparent" points="-4,4 -4,-207 500,-207 500,4 -4,4"/>
<text text-anchor="start" x="227.01" y="-42.4" font-family="Times-12" font-weight="bold" font-size="14.00">Legend</text>
<polygon fill="#ffffb3" stroke="transparent" points="14,-10 14,-30 34,-30 34,-10 14,-10"/>
<text text-anchor="start" x="37.63" y="-15.4" font-family="Times-12" font-size="14.00"> &#160;Declarations</text>
<polygon fill="#8dd3c7" stroke="transparent" points="127,-10 127,-30 147,-30 147,-10 127,-10"/>
<text text-anchor="start" x="150.73" y="-15.4" font-family="Times-12" font-size="14.00"> &#160;Module</text>
<polygon fill="#80b1d3" stroke="transparent" points="213,-10 213,-30 233,-30 233,-10 213,-10"/>
<text text-anchor="start" x="236.78" y="-15.4" font-family="Times-12" font-size="14.00"> &#160;Bootstrap</text>
<polygon fill="#fdb462" stroke="transparent" points="310,-10 310,-30 330,-30 330,-10 310,-10"/>
<text text-anchor="start" x="333.67" y="-15.4" font-family="Times-12" font-size="14.00"> &#160;Providers</text>
<polygon fill="#fb8072" stroke="transparent" points="406,-10 406,-30 426,-30 426,-10 406,-10"/>
<text text-anchor="start" x="429.73" y="-15.4" font-family="Times-12" font-size="14.00"> &#160;Exports</text>
<g id="clust1" class="cluster">
<title>cluster_DocumentsModule</title>
<polygon fill="none" stroke="black" stroke-dasharray="1,5" points="86,-70 86,-195 410,-195 410,-70 86,-70"/>
</g>
<g id="clust6" class="cluster">
<title>cluster_DocumentsModule_providers</title>
<polygon fill="none" stroke="black" points="218,-78 218,-130 402,-130 402,-78 218,-78"/>
</g>
<g id="clust3" class="cluster">
<title>cluster_DocumentsModule_imports</title>
<polygon fill="none" stroke="black" points="94,-78 94,-130 210,-130 210,-78 94,-78"/>
</g>
<!-- LoggerModule -->
<g id="node1" class="node">
<title>LoggerModule</title>
<polygon fill="#8dd3c7" stroke="black" points="201.98,-122 198.98,-126 177.98,-126 174.98,-122 102.02,-122 102.02,-86 201.98,-86 201.98,-122"/>
<text text-anchor="middle" x="152" y="-99.8" font-family="Times,serif" font-size="14.00">LoggerModule</text>
</g>
<!-- DocumentsModule -->
<g id="node2" class="node">
<title>DocumentsModule</title>
<polygon fill="#8dd3c7" stroke="black" points="294.81,-187 291.81,-191 270.81,-191 267.81,-187 171.19,-187 171.19,-151 294.81,-151 294.81,-187"/>
<text text-anchor="middle" x="233" y="-164.8" font-family="Times,serif" font-size="14.00">DocumentsModule</text>
</g>
<!-- LoggerModule&#45;&gt;DocumentsModule -->
<g id="edge1" class="edge">
<title>LoggerModule&#45;&gt;DocumentsModule</title>
<path fill="none" stroke="black" d="M186.67,-122.11C186.67,-122.11 186.67,-140.99 186.67,-140.99"/>
<polygon fill="black" stroke="black" points="183.17,-140.99 186.67,-150.99 190.17,-140.99 183.17,-140.99"/>
</g>
<!-- DocumentsService -->
<g id="node3" class="node">
<title>DocumentsService</title>
<ellipse fill="#fdb462" stroke="black" cx="310" cy="-104" rx="83.95" ry="18"/>
<text text-anchor="middle" x="310" y="-99.8" font-family="Times,serif" font-size="14.00">DocumentsService</text>
</g>
<!-- DocumentsService&#45;&gt;DocumentsModule -->
<g id="edge2" class="edge">
<title>DocumentsService&#45;&gt;DocumentsModule</title>
<path fill="none" stroke="black" d="M260.34,-118.75C260.34,-118.75 260.34,-140.59 260.34,-140.59"/>
<polygon fill="black" stroke="black" points="256.84,-140.59 260.34,-150.59 263.84,-140.59 256.84,-140.59"/>
</g>
</g>
</svg>
