<?xml version="1.0" encoding="UTF-8" standalone="no"?>
<!DOCTYPE svg PUBLIC "-//W3C//DTD SVG 1.1//EN"
 "http://www.w3.org/Graphics/SVG/1.1/DTD/svg11.dtd">
<!-- Generated by graphviz version 2.47.0 (20210316.0004)
 -->
<!-- Title: dependencies Pages: 1 -->
<svg width="624pt" height="211pt"
 viewBox="0.00 0.00 624.00 211.00" xmlns="http://www.w3.org/2000/svg" xmlns:xlink="http://www.w3.org/1999/xlink">
<g id="graph0" class="graph" transform="scale(1 1) rotate(0) translate(4 207)">
<title>dependencies</title>
<polygon fill="white" stroke="transparent" points="-4,4 -4,-207 620,-207 620,4 -4,4"/>
<text text-anchor="start" x="287.01" y="-42.4" font-family="Times-12" font-weight="bold" font-size="14.00">Legend</text>
<polygon fill="#ffffb3" stroke="transparent" points="74,-10 74,-30 94,-30 94,-10 74,-10"/>
<text text-anchor="start" x="97.63" y="-15.4" font-family="Times-12" font-size="14.00"> &#160;Declarations</text>
<polygon fill="#8dd3c7" stroke="transparent" points="187,-10 187,-30 207,-30 207,-10 187,-10"/>
<text text-anchor="start" x="210.73" y="-15.4" font-family="Times-12" font-size="14.00"> &#160;Module</text>
<polygon fill="#80b1d3" stroke="transparent" points="273,-10 273,-30 293,-30 293,-10 273,-10"/>
<text text-anchor="start" x="296.78" y="-15.4" font-family="Times-12" font-size="14.00"> &#160;Bootstrap</text>
<polygon fill="#fdb462" stroke="transparent" points="370,-10 370,-30 390,-30 390,-10 370,-10"/>
<text text-anchor="start" x="393.67" y="-15.4" font-family="Times-12" font-size="14.00"> &#160;Providers</text>
<polygon fill="#fb8072" stroke="transparent" points="466,-10 466,-30 486,-30 486,-10 466,-10"/>
<text text-anchor="start" x="489.73" y="-15.4" font-family="Times-12" font-size="14.00"> &#160;Exports</text>
<g id="clust1" class="cluster">
<title>cluster_CreditsModule</title>
<polygon fill="none" stroke="black" stroke-dasharray="1,5" points="8,-70 8,-195 608,-195 608,-70 8,-70"/>
</g>
<g id="clust3" class="cluster">
<title>cluster_CreditsModule_imports</title>
<polygon fill="none" stroke="black" points="356,-78 356,-130 600,-130 600,-78 356,-78"/>
</g>
<g id="clust6" class="cluster">
<title>cluster_CreditsModule_providers</title>
<polygon fill="none" stroke="black" points="16,-78 16,-130 348,-130 348,-78 16,-78"/>
</g>
<!-- DatabaseModule -->
<g id="node1" class="node">
<title>DatabaseModule</title>
<polygon fill="#8dd3c7" stroke="black" points="592.35,-122 589.35,-126 568.35,-126 565.35,-122 481.65,-122 481.65,-86 592.35,-86 592.35,-122"/>
<text text-anchor="middle" x="537" y="-99.8" font-family="Times,serif" font-size="14.00">DatabaseModule</text>
</g>
<!-- CreditsModule -->
<g id="node3" class="node">
<title>CreditsModule</title>
<polygon fill="#8dd3c7" stroke="black" points="463.99,-187 460.99,-191 439.99,-191 436.99,-187 364.01,-187 364.01,-151 463.99,-151 463.99,-187"/>
<text text-anchor="middle" x="414" y="-164.8" font-family="Times,serif" font-size="14.00">CreditsModule</text>
</g>
<!-- DatabaseModule&#45;&gt;CreditsModule -->
<g id="edge1" class="edge">
<title>DatabaseModule&#45;&gt;CreditsModule</title>
<path fill="none" stroke="black" d="M555.47,-122.28C555.47,-143.32 555.47,-175 555.47,-175 555.47,-175 474.28,-175 474.28,-175"/>
<polygon fill="black" stroke="black" points="474.28,-171.5 464.28,-175 474.28,-178.5 474.28,-171.5"/>
</g>
<!-- DatabaseModule&#45;&gt;CreditsModule -->
<g id="edge2" class="edge">
<title>DatabaseModule&#45;&gt;CreditsModule</title>
<path fill="none" stroke="black" d="M518.52,-122.02C518.52,-139.37 518.52,-163 518.52,-163 518.52,-163 474.12,-163 474.12,-163"/>
<polygon fill="black" stroke="black" points="474.12,-159.5 464.12,-163 474.12,-166.5 474.12,-159.5"/>
</g>
<!-- LoggerModule -->
<g id="node2" class="node">
<title>LoggerModule</title>
<polygon fill="#8dd3c7" stroke="black" points="463.98,-122 460.98,-126 439.98,-126 436.98,-122 364.02,-122 364.02,-86 463.98,-86 463.98,-122"/>
<text text-anchor="middle" x="414" y="-99.8" font-family="Times,serif" font-size="14.00">LoggerModule</text>
</g>
<!-- LoggerModule&#45;&gt;CreditsModule -->
<g id="edge3" class="edge">
<title>LoggerModule&#45;&gt;CreditsModule</title>
<path fill="none" stroke="black" d="M414,-122.11C414,-122.11 414,-140.99 414,-140.99"/>
<polygon fill="black" stroke="black" points="410.5,-140.99 414,-150.99 417.5,-140.99 410.5,-140.99"/>
</g>
<!-- CreditsRepository -->
<g id="node4" class="node">
<title>CreditsRepository</title>
<ellipse fill="#fdb462" stroke="black" cx="259" cy="-104" rx="81.12" ry="18"/>
<text text-anchor="middle" x="259" y="-99.8" font-family="Times,serif" font-size="14.00">CreditsRepository</text>
</g>
<!-- CreditsRepository&#45;&gt;CreditsModule -->
<g id="edge4" class="edge">
<title>CreditsRepository&#45;&gt;CreditsModule</title>
<path fill="none" stroke="black" d="M259,-122.02C259,-139.37 259,-163 259,-163 259,-163 353.68,-163 353.68,-163"/>
<polygon fill="black" stroke="black" points="353.68,-166.5 363.68,-163 353.68,-159.5 353.68,-166.5"/>
</g>
<!-- CreditsService -->
<g id="node5" class="node">
<title>CreditsService</title>
<ellipse fill="#fdb462" stroke="black" cx="92" cy="-104" rx="67.77" ry="18"/>
<text text-anchor="middle" x="92" y="-99.8" font-family="Times,serif" font-size="14.00">CreditsService</text>
</g>
<!-- CreditsService&#45;&gt;CreditsModule -->
<g id="edge5" class="edge">
<title>CreditsService&#45;&gt;CreditsModule</title>
<path fill="none" stroke="black" d="M92,-122.28C92,-143.32 92,-175 92,-175 92,-175 353.69,-175 353.69,-175"/>
<polygon fill="black" stroke="black" points="353.69,-178.5 363.69,-175 353.69,-171.5 353.69,-178.5"/>
</g>
</g>
</svg>
